# xmcd
# 
# Track frame offsets:
#     150
#     76516
#     144556
#     201796
#     262220
# 
# Disc length: 3660
# 
# Revision: 1
# Processed by: cddbd v1.5.2PL0 Copyright (c) Steve Scherf et al.
# Submitted via: fre:ac v1.0.31
# 
DISCID=3f0e4a05
DTITLE=Derek and The Dominos - The Layla Sessions 30th Anniversary Edition Disc 1
DYEAR=0
DGENRE=
TTITLE0=Jam Ⅵ
TTITLE1=Jam Ⅶ
TTITLE2=Jam Ⅷ
TTITLE3=Jam Ⅸ
TTITLE4=Jam Ⅹ
EXTD=
EXTT0=
EXTT1=
EXTT2=
EXTT3=
EXTT4=
PLAYORDER=
